<?xml version="1.0" standalone="no"?>
<!DOCTYPE svg PUBLIC "-//W3C//DTD SVG 20010904//EN"
 "http://www.w3.org/TR/2001/REC-SVG-20010904/DTD/svg10.dtd">
<svg version="1.0" xmlns="http://www.w3.org/2000/svg"
 width="512.000000pt" height="370.000000pt" viewBox="0 0 512.000000 370.000000"
 preserveAspectRatio="xMidYMid meet">

<g transform="translate(0.000000,370.000000) scale(0.100000,-0.100000)"
fill="#000000" stroke="none">
<path d="M2435 3694 c-16 -2 -65 -9 -109 -15 -246 -33 -541 -172 -741 -349
-253 -223 -432 -545 -486 -875 -20 -120 -17 -390 5 -500 71 -361 275 -695 550
-903 l68 -52 -28 -10 c-121 -46 -173 -69 -276 -120 -359 -180 -668 -438 -909
-760 l-79 -105 250 -3 251 -2 106 106 c244 243 526 417 849 523 294 96 585
130 875 101 504 -50 965 -268 1322 -624 l106 -106 251 2 250 3 -79 105 c-241
322 -550 580 -909 760 -103 51 -155 74 -276 120 l-28 10 68 52 c275 208 479
542 550 903 22 110 25 380 5 500 -43 263 -176 542 -352 742 -219 247 -527 421
-848 479 -77 14 -332 26 -386 18z m294 -409 c588 -96 990 -650 896 -1234 -96
-588 -650 -990 -1234 -896 -588 96 -990 650 -896 1234 96 588 650 990 1234
896z"/>
</g>
</svg>