<?xml version="1.0" standalone="no"?>
<!DOCTYPE svg PUBLIC "-//W3C//DTD SVG 20010904//EN"
 "http://www.w3.org/TR/2001/REC-SVG-20010904/DTD/svg10.dtd">
<svg version="1.0" xmlns="http://www.w3.org/2000/svg"
 width="39.000000pt" height="40.000000pt" viewBox="0 0 39.000000 40.000000"
 preserveAspectRatio="xMidYMid meet">

<g transform="translate(0.000000,40.000000) scale(0.100000,-0.100000)"
fill="#000000" stroke="none">
<path d="M187 313 c-11 -10 -8 -25 3 -18 6 4 11 -6 11 -22 2 -24 2 -25 6 -5 4
18 9 22 26 16 22 -7 22 -6 3 15 -19 21 -37 27 -49 14z"/>
<path d="M88 223 c-15 -4 -18 -16 -18 -79 l0 -74 135 0 136 0 -3 78 -3 77
-115 1 c-63 1 -123 0 -132 -3z m17 -23 c-3 -5 -10 -10 -16 -10 -5 0 -9 5 -9
10 0 6 7 10 16 10 8 0 12 -4 9 -10z m197 -15 c31 -29 31 -41 -4 -77 -23 -25
-32 -28 -92 -28 -61 0 -70 3 -97 29 -35 35 -36 47 -6 76 19 19 33 23 97 24 67
1 78 -2 102 -24z m28 15 c0 -5 -7 -10 -15 -10 -8 0 -15 5 -15 10 0 6 7 10 15
10 8 0 15 -4 15 -10z m-222 -108 c2 -7 -3 -12 -12 -12 -9 0 -16 7 -16 16 0 17
22 14 28 -4z m213 -5 c-13 -13 -26 -3 -16 12 3 6 11 8 17 5 6 -4 6 -10 -1 -17z"/>
<path d="M172 178 c-27 -27 -6 -68 35 -68 29 0 48 33 33 60 -12 22 -49 27 -68
8z m53 -28 c0 -16 -6 -26 -18 -28 -19 -4 -32 20 -23 44 9 25 41 13 41 -16z"/>
</g>
</svg>
