<svg aria-hidden="true" focusable="false" role="none" width="24" height="24" fill="currentColor" viewBox="0 0 24 24"><path fill-rule="evenodd" d="M12 1.717c-5.657 0-10.286 4.628-10.286 10.285 0 5.658 4.63 10.286 10.286 10.286 5.657 0 10.286-4.628 10.286-10.285 0-5.658-4.629-10.286-10.286-10.286m0 18.857c-4.714 0-8.571-3.857-8.571-8.572S7.286 3.432 12 3.432c4.715 0 8.572 3.856 8.572 8.57S16.715 20.575 12 20.575m0-2.569a1.286 1.286 0 1 0 0-2.571 1.286 1.286 0 0 0 0 2.571M8.7 10.29c0-1.972 1.372-3.429 3.3-3.429 1.929 0 3.3 1.372 3.3 3.3 0 1.072-.771 1.886-1.457 2.572-.471.471-.985.986-.985 1.371h-1.715c0-1.071.772-1.885 1.457-2.571.472-.472.986-.986.986-1.372 0-.985-.6-1.585-1.586-1.585-.943 0-1.585.685-1.585 1.714z" clip-rule="evenodd"></path></svg>